<?xml version="1.0" standalone="no"?>
<!DOCTYPE svg PUBLIC "-//W3C//DTD SVG 20010904//EN"
 "http://www.w3.org/TR/2001/REC-SVG-20010904/DTD/svg10.dtd">
<svg version="1.0" xmlns="http://www.w3.org/2000/svg"
 width="575.000000pt" height="550.000000pt" viewBox="0 0 575.000000 550.000000"
 preserveAspectRatio="xMidYMid meet">

<g transform="translate(0.000000,550.000000) scale(0.100000,-0.100000)"
fill="#000000" stroke="none">
<path d="M2660 5485 c-363 -53 -671 -177 -940 -376 -102 -76 -274 -247 -363
-362 -237 -302 -375 -669 -394 -1042 l-6 -120 -51 -32 c-407 -251 -730 -687
-846 -1143 -54 -212 -72 -454 -51 -675 60 -613 403 -1148 943 -1470 172 -103
417 -192 633 -231 121 -21 415 -30 541 -15 232 27 429 84 633 182 111 53 126
58 140 45 9 -9 62 -35 116 -59 284 -126 514 -177 797 -177 600 0 1113 237
1494 690 245 291 394 648 434 1039 51 506 -108 1017 -442 1416 -117 141 -361
350 -468 401 -40 19 -40 19 -40 79 0 225 -79 549 -190 782 -232 487 -711 880
-1241 1016 -229 60 -508 81 -699 52z m342 -175 c439 -42 825 -223 1119 -526
186 -192 311 -395 398 -649 70 -202 86 -306 86 -560 -1 -190 -4 -234 -23 -325
-44 -203 -148 -459 -252 -620 -70 -108 -187 -245 -279 -328 -78 -70 -210 -172
-223 -172 -3 0 -8 35 -12 78 -26 291 -213 694 -449 963 -248 284 -588 501
-928 593 -387 105 -782 92 -1156 -39 -72 -25 -132 -45 -134 -45 -10 0 11 183
30 268 87 390 298 741 591 984 243 201 621 350 963 378 137 11 153 11 269 0z
m-921 -1660 c193 -20 424 -82 562 -151 31 -16 57 -31 57 -33 0 -2 -30 -26 -67
-54 -192 -142 -415 -425 -534 -677 -266 -566 -235 -1254 81 -1782 121 -200
306 -413 462 -530 l67 -50 -112 -46 c-242 -98 -418 -131 -692 -130 -361 1
-590 64 -885 241 -360 217 -638 569 -763 969 -59 187 -72 281 -72 523 1 194 4
238 23 323 73 327 234 637 452 870 352 377 899 579 1421 527z m2798 -337 c218
-170 388 -377 513 -628 137 -273 188 -520 175 -850 -24 -590 -353 -1126 -877
-1428 -298 -172 -579 -235 -970 -216 -141 7 -198 14 -295 38 -208 51 -409 141
-585 262 -368 252 -654 686 -724 1098 -14 85 -22 241 -12 241 2 0 36 -14 75
-30 231 -98 650 -155 901 -121 227 30 446 96 638 191 163 81 236 127 359 227
341 277 583 675 663 1093 28 144 39 190 46 190 4 0 45 -30 93 -67z m-1742
-453 c22 -5 49 -22 66 -40 l27 -30 0 -284 c0 -389 23 -366 -367 -365 -287 0
-314 5 -350 58 -23 33 -23 39 -23 303 0 214 3 275 14 297 19 36 39 52 79 61
44 11 506 10 554 0z"/>
<path d="M2748 2790 l-30 -30 4 -121 c4 -153 9 -159 134 -159 102 0 104 -3
104 -127 0 -120 -4 -125 -105 -121 l-80 3 -5 62 c-7 83 -29 107 -104 109 -29
1 -59 4 -65 8 -13 9 -15 145 -1 166 5 8 21 15 37 15 21 1 29 7 31 23 3 19 -1
22 -31 22 -20 0 -46 -9 -61 -21 -25 -19 -26 -25 -26 -114 0 -121 11 -138 102
-145 l63 -5 5 -62 c7 -88 23 -102 125 -106 142 -7 155 8 155 172 0 94 -3 112
-21 135 -19 24 -26 26 -104 26 -58 0 -86 4 -94 14 -8 9 -11 51 -9 122 l3 109
80 3 c94 3 105 -5 105 -78 0 -66 15 -81 91 -92 35 -4 67 -12 72 -17 4 -4 7
-43 5 -87 l-3 -79 -35 -5 c-27 -4 -36 -10 -38 -27 -3 -20 1 -23 32 -23 22 0
45 9 63 24 27 23 28 28 28 116 0 88 -1 93 -28 116 -21 18 -40 24 -76 24 -58 0
-71 12 -71 67 0 90 -30 113 -146 113 -71 0 -78 -2 -106 -30z"/>
</g>
</svg>
