<svg width="68" height="69" viewBox="0 0 68 69" fill="none" xmlns="http://www.w3.org/2000/svg">
<path fill-rule="evenodd" clip-rule="evenodd" d="M34.0009 0.0917969C15.2204 0.0917969 -0.00488281 15.3171 -0.00488281 34.0976C-0.00488281 52.8781 15.2204 68.1034 34.0009 68.1034C52.7814 68.1034 68.0067 52.8781 68.0067 34.0976C68.0067 15.3171 52.7814 0.0917969 34.0009 0.0917969ZM48.7409 28.3475C49.0123 28.0373 49.2189 27.6759 49.3486 27.2846C49.4783 26.8933 49.5284 26.48 49.496 26.0691C49.4636 25.6581 49.3494 25.2578 49.16 24.8917C48.9706 24.5256 48.7099 24.201 48.3932 23.9371C48.0766 23.6732 47.7103 23.4753 47.316 23.355C46.9217 23.2348 46.5074 23.1946 46.0973 23.2368C45.6873 23.2791 45.2898 23.4029 44.9284 23.601C44.5669 23.7992 44.2487 24.0676 43.9924 24.3905L30.6993 40.3392L23.8208 33.4577C23.2378 32.8945 22.4569 32.5829 21.6463 32.59C20.8357 32.597 20.0604 32.9221 19.4872 33.4953C18.914 34.0685 18.5889 34.8439 18.5818 35.6544C18.5748 36.465 18.8864 37.2459 19.4495 37.829L28.7238 47.1033C29.0276 47.4068 29.3913 47.6438 29.7917 47.799C30.1921 47.9543 30.6204 48.0244 31.0494 48.0049C31.4784 47.9854 31.8987 47.8767 32.2833 47.6858C32.668 47.4949 33.0087 47.226 33.2837 46.8961L48.7409 28.3475Z" fill="#1561A6"/>
</svg>
