<svg width="37" height="38" viewBox="0 0 37 38" fill="none" xmlns="http://www.w3.org/2000/svg">
<path d="M26.6667 19.2109C26.6667 18.088 25.7479 17.1693 24.625 17.1693H18.5C17.3771 17.1693 16.4583 18.088 16.4583 19.2109C16.4583 20.3339 17.3771 21.2526 18.5 21.2526H24.625C25.7479 21.2526 26.6667 20.3339 26.6667 19.2109ZM18.5 4.91927C26.3788 4.91927 32.7917 11.3321 32.7917 19.2109C32.7917 27.0897 26.3788 33.5026 18.5 33.5026C10.6212 33.5026 4.20833 27.0897 4.20833 19.2109C4.20833 11.3321 10.6212 4.91927 18.5 4.91927ZM18.5 0.835938C8.35087 0.835938 0.125 9.06181 0.125 19.2109C0.125 29.3601 8.35087 37.5859 18.5 37.5859C28.6491 37.5859 36.875 29.3601 36.875 19.2109C36.875 9.06181 28.6491 0.835938 18.5 0.835938ZM20.5417 13.0859C20.5417 11.963 19.6229 11.0443 18.5 11.0443C17.3771 11.0443 16.4583 11.963 16.4583 13.0859V19.2109C16.4583 20.3339 17.3771 21.2526 18.5 21.2526C19.6229 21.2526 20.5417 20.3339 20.5417 19.2109V13.0859ZM18.5 9.0026C24.1289 9.0026 28.7083 13.5821 28.7083 19.2109C28.7083 24.8398 24.1289 29.4193 18.5 29.4193C12.8711 29.4193 8.29167 24.8398 8.29167 19.2109C8.29167 13.5821 12.8711 9.0026 18.5 9.0026ZM18.5 6.96094C15.2511 6.96094 12.1353 8.25156 9.83794 10.5489C7.54062 12.8462 6.25 15.962 6.25 19.2109C6.25 22.4598 7.54062 25.5757 9.83794 27.873C12.1353 30.1703 15.2511 31.4609 18.5 31.4609C21.7489 31.4609 24.8647 30.1703 27.1621 27.873C29.4594 25.5757 30.75 22.4598 30.75 19.2109C30.75 15.962 29.4594 12.8462 27.1621 10.5489C24.8647 8.25156 21.7489 6.96094 18.5 6.96094Z" fill="#A6A6A8"/>
</svg>
