<svg width="47" height="46" viewBox="0 0 47 46" fill="none" xmlns="http://www.w3.org/2000/svg">
<path d="M23.5 5.04053L27.3672 0.997559C27.9824 0.470215 28.6855 0.206543 29.4766 0.382324C30.1797 0.645996 30.7949 1.17334 30.9707 1.96436L32.377 7.41357L37.8262 5.91943C38.5293 5.65576 39.3203 5.91943 39.8477 6.44678C40.375 6.97412 40.6387 7.76514 40.375 8.46826L38.8809 13.9175L44.3301 15.3237C45.1211 15.4995 45.6484 16.1147 45.9121 16.8179C46.0879 17.521 45.8242 18.312 45.2969 18.8394L41.2539 22.7944L45.2969 26.7495C45.8242 27.2769 46.0879 28.0679 45.9121 28.8589C45.6484 29.562 45.1211 30.1772 44.3301 30.353L38.8809 31.7593L40.375 37.2085C40.6387 37.9116 40.375 38.7026 39.8477 39.23C39.3203 39.7573 38.5293 40.021 37.8262 39.7573L32.377 38.2632L30.9707 43.7124C30.7949 44.5034 30.1797 45.0308 29.4766 45.2944C28.6855 45.4702 27.9824 45.2065 27.3672 44.6792L23.5 40.6362L19.5449 44.6792C18.9297 45.2065 18.2266 45.4702 17.4355 45.2944C16.7324 45.0308 16.1172 44.5034 15.9414 43.7124L14.5352 38.2632L9.08594 39.7573C8.38281 40.021 7.5918 39.7573 7.06445 39.23C6.53711 38.7026 6.27344 37.9116 6.53711 37.2085L8.03125 31.7593L2.58203 30.353C1.79102 30.1772 1.26367 29.562 1 28.8589C0.824219 28.0679 1.08789 27.2769 1.61523 26.7495L5.6582 22.7944L1.61523 18.8394C1.08789 18.312 0.824219 17.521 1 16.8179C1.26367 16.1147 1.79102 15.4995 2.58203 15.3237L8.03125 13.9175L6.53711 8.46826C6.27344 7.76514 6.53711 6.97412 7.06445 6.44678C7.5918 5.91943 8.38281 5.65576 9.08594 5.91943L14.5352 7.41357L15.9414 1.96436C16.1172 1.17334 16.7324 0.645996 17.4355 0.382324C18.2266 0.206543 18.9297 0.470215 19.5449 0.997559L23.5 5.04053Z" fill="#A6A6A8"/>
</svg>
