<svg width="52" height="40" viewBox="0 0 52 40" fill="none" xmlns="http://www.w3.org/2000/svg">
<path d="M45.8545 0.106934C48.9307 0.106934 51.4795 2.65576 51.4795 5.73193V8.54443H0.854492V5.73193C0.854492 2.65576 3.31543 0.106934 6.47949 0.106934H45.8545ZM51.4795 33.8569C51.4795 37.021 48.9307 39.4819 45.8545 39.4819H6.47949C3.31543 39.4819 0.854492 37.021 0.854492 33.8569V16.9819H51.4795V33.8569ZM10.6982 28.2319C9.90723 28.2319 9.29199 28.9351 9.29199 29.6382C9.29199 30.4292 9.90723 31.0444 10.6982 31.0444H16.3232C17.0264 31.0444 17.7295 30.4292 17.7295 29.6382C17.7295 28.9351 17.0264 28.2319 16.3232 28.2319H10.6982ZM21.9482 31.0444H33.1982C33.9014 31.0444 34.6045 30.4292 34.6045 29.6382C34.6045 28.9351 33.9014 28.2319 33.1982 28.2319H21.9482C21.1572 28.2319 20.542 28.9351 20.542 29.6382C20.542 30.4292 21.1572 31.0444 21.9482 31.0444Z" fill="#A6A6A8"/>
</svg>
