<svg width="45" height="45" viewBox="0 0 45 45" fill="none" xmlns="http://www.w3.org/2000/svg">
<mask id="mask0_567_1610" style="mask-type:luminance" maskUnits="userSpaceOnUse" x="2" y="6" width="32" height="31">
<path d="M2.60803 6.69354H33.1437V36.9986H2.60803V6.69354Z" fill="white"/>
</mask>
<g mask="url(#mask0_567_1610)">
<path d="M17.9223 37.0046C17.4334 37.0046 16.989 37.0046 16.4997 36.9604C12.4545 36.6049 8.80904 34.6956 6.23061 31.5425C3.65219 28.3898 2.40756 24.4818 2.76311 20.4853C3.11905 16.4443 5.03057 12.803 8.18672 10.2273C13.6545 5.65347 21.7012 5.56468 27.2578 9.96088C27.4357 10.0939 27.4803 10.4048 27.3469 10.5824C27.2136 10.76 26.9022 10.8046 26.7246 10.6712C21.479 6.5414 13.9213 6.63019 8.76483 10.9376C2.71891 15.9115 1.87404 24.9261 6.89751 30.9652C9.34255 33.8961 12.7655 35.7169 16.5889 36.0275C20.3674 36.3831 24.1016 35.2284 27.0356 32.786C32.6814 28.1234 33.8372 19.9968 29.7474 13.8685C29.614 13.6467 29.6586 13.38 29.8808 13.247C30.103 13.1136 30.3697 13.1582 30.5031 13.38C34.8597 19.8634 33.615 28.4786 27.6137 33.4963C24.8573 35.7611 21.479 37.0046 17.9223 37.0046Z" fill="#272635"/>
</g>
<path d="M18.9957 32.8342C16.1505 32.8342 13.3057 31.6353 11.3496 29.2817C9.66026 27.2387 8.85998 24.6633 9.08216 22.0433C9.30471 19.4234 10.5939 17.0252 12.5942 15.3378C15.795 12.6732 20.3295 12.318 23.8858 14.3607C24.108 14.494 24.1526 14.7604 24.0638 14.9826C23.9304 15.2044 23.6636 15.249 23.4415 15.1602C20.1961 13.2951 16.0617 13.6503 13.1278 16.0481C11.2608 17.6026 10.1492 19.7786 9.92702 22.1763C9.70485 24.5745 10.416 26.9281 11.9719 28.7485C15.1727 32.5678 20.863 33.1005 24.6861 29.9032C27.9756 27.1499 28.9093 22.4427 26.8644 18.6685C26.731 18.4463 26.8198 18.1799 27.0423 18.0465C27.2645 17.9135 27.5313 18.0023 27.6646 18.2241C29.8871 22.3539 28.9093 27.5496 25.2638 30.5694C23.4857 32.0792 21.2186 32.8342 18.9957 32.8342Z" fill="#272635"/>
<mask id="mask1_567_1610" style="mask-type:luminance" maskUnits="userSpaceOnUse" x="15" y="1" width="25" height="25">
<path d="M15.2904 1.42517H39.9726V25.8989H15.2904V1.42517Z" fill="white"/>
</mask>
<g mask="url(#mask1_567_1610)">
<path d="M39.8987 6.40437C39.8541 6.27137 39.7207 6.13799 39.5874 6.09341L36.1644 5.20548L35.2754 1.786C35.2308 1.653 35.0974 1.51962 34.964 1.47541C34.8306 1.43082 34.6531 1.47541 34.5197 1.60841L31.7633 4.27296C31.6299 4.40596 31.5857 4.53934 31.6299 4.71692L32.519 8.13641L23.1389 17.5507C22.339 16.8846 21.272 16.4848 20.1162 16.4848C17.4932 16.4848 15.4041 18.6163 15.4041 21.192C15.4041 23.7674 17.5378 25.8992 20.1608 25.8992C22.7834 25.8992 24.8729 23.7674 24.8729 21.1474C24.8729 19.9931 24.4727 18.9714 23.8058 18.1277L33.1859 8.75796L36.6088 9.64627C36.6534 9.64627 36.698 9.64627 36.7422 9.64627C36.8756 9.64627 36.9647 9.60168 37.0535 9.51289L39.7653 6.80413C39.8541 6.71534 39.8987 6.58196 39.8987 6.40437ZM23.9838 21.1474C23.9838 23.2792 22.2499 24.9667 20.1608 24.9667C18.0713 24.9667 16.3373 23.2346 16.3373 21.1474C16.3373 19.0606 18.0713 17.3286 20.1608 17.3286C21.0498 17.3286 21.8943 17.6395 22.5166 18.1723L21.094 19.5934C20.8273 19.4158 20.4717 19.327 20.1162 19.327C19.0937 19.327 18.2489 20.1707 18.2489 21.192C18.2489 22.2133 19.0937 23.057 20.1162 23.057C21.1386 23.057 21.9831 22.2133 21.9831 21.192C21.9831 20.8368 21.8943 20.5259 21.7164 20.2149L23.1389 18.7938C23.6725 19.46 23.9838 20.2595 23.9838 21.1474ZM32.5636 4.71692L34.5639 2.71851L35.2754 5.42765L35.2308 5.47186L33.2747 7.42568L32.5636 4.71692ZM36.6088 8.75796L33.897 8.04761L35.4088 6.53775L35.8977 6.0492L38.6095 6.75954L36.6088 8.75796Z" fill="#272635"/>
</g>
</svg>
