<svg width="24" height="24" viewBox="0 0 24 24" fill="none" xmlns="http://www.w3.org/2000/svg">
<g id="Frame">
<path id="Vector" d="M15.7493 10.5V6C15.7493 5.00544 15.3542 4.05161 14.6509 3.34835C13.9476 2.64509 12.9938 2.25 11.9993 2.25C11.0047 2.25 10.0509 2.64509 9.3476 3.34835C8.64434 4.05161 8.24925 5.00544 8.24925 6V10.5M19.6053 8.507L20.8683 20.507C20.9383 21.172 20.4183 21.75 19.7493 21.75H4.24925C4.09146 21.7502 3.9354 21.7171 3.7912 21.6531C3.647 21.589 3.5179 21.4953 3.41228 21.3781C3.30665 21.2608 3.22687 21.1227 3.17811 20.9726C3.12935 20.8226 3.1127 20.6639 3.12925 20.507L4.39325 8.507C4.42241 8.23056 4.55288 7.9747 4.7595 7.78876C4.96613 7.60281 5.23428 7.49995 5.51225 7.5H18.4863C19.0623 7.5 19.5453 7.935 19.6053 8.507ZM8.62425 10.5C8.62425 10.5995 8.58474 10.6948 8.51442 10.7652C8.44409 10.8355 8.34871 10.875 8.24925 10.875C8.1498 10.875 8.05441 10.8355 7.98409 10.7652C7.91376 10.6948 7.87425 10.5995 7.87425 10.5C7.87425 10.4005 7.91376 10.3052 7.98409 10.2348C8.05441 10.1645 8.1498 10.125 8.24925 10.125C8.34871 10.125 8.44409 10.1645 8.51442 10.2348C8.58474 10.3052 8.62425 10.4005 8.62425 10.5ZM16.1243 10.5C16.1243 10.5995 16.0847 10.6948 16.0144 10.7652C15.9441 10.8355 15.8487 10.875 15.7493 10.875C15.6498 10.875 15.5544 10.8355 15.4841 10.7652C15.4138 10.6948 15.3743 10.5995 15.3743 10.5C15.3743 10.4005 15.4138 10.3052 15.4841 10.2348C15.5544 10.1645 15.6498 10.125 15.7493 10.125C15.8487 10.125 15.9441 10.1645 16.0144 10.2348C16.0847 10.3052 16.1243 10.4005 16.1243 10.5Z" stroke="#D75951" stroke-width="1.5" stroke-linecap="round" stroke-linejoin="round"/>
</g>
</svg>
