<svg width="121" height="121" viewBox="0 0 121 121" fill="none" xmlns="http://www.w3.org/2000/svg">
<circle cx="60.5" cy="60.5" r="60.5" fill="#272635"/>
<g clip-path="url(#clip0_478_249)">
<path d="M46.3 37.3438C46.3 34.3936 48.6852 32 51.625 32H69.375C72.3148 32 74.7 34.3936 74.7 37.3438V89H65.825V80.0938C65.825 77.1436 63.4398 74.75 60.5 74.75C57.5602 74.75 55.175 77.1436 55.175 80.0938V89H46.3V37.3438ZM30.325 42.6875H42.75V89H30.325C27.3852 89 25 86.6064 25 83.6562V67.625H33.875C34.8512 67.625 35.65 66.8234 35.65 65.8438C35.65 64.8641 34.8512 64.0625 33.875 64.0625H25V56.9375H33.875C34.8512 56.9375 35.65 56.1359 35.65 55.1562C35.65 54.1766 34.8512 53.375 33.875 53.375H25V48.0312C25 45.0811 27.3852 42.6875 30.325 42.6875ZM90.675 42.6875C93.6148 42.6875 96 45.0811 96 48.0312V53.375H87.125C86.1488 53.375 85.35 54.1766 85.35 55.1562C85.35 56.1359 86.1488 56.9375 87.125 56.9375H96V64.0625H87.125C86.1488 64.0625 85.35 64.8641 85.35 65.8438C85.35 66.8234 86.1488 67.625 87.125 67.625H96V83.6562C96 86.6064 93.6148 89 90.675 89H78.25V42.6875H90.675ZM59.6125 39.125C58.6362 39.125 57.8375 39.9266 57.8375 40.9062V43.5781H55.175C54.1987 43.5781 53.4 44.3797 53.4 45.3594V47.1406C53.4 48.1203 54.1987 48.9219 55.175 48.9219H57.8375V51.5938C57.8375 52.5734 58.6362 53.375 59.6125 53.375H61.3875C62.3638 53.375 63.1625 52.5734 63.1625 51.5938V48.9219H65.825C66.8013 48.9219 67.6 48.1203 67.6 47.1406V45.3594C67.6 44.3797 66.8013 43.5781 65.825 43.5781H63.1625V40.9062C63.1625 39.9266 62.3638 39.125 61.3875 39.125H59.6125Z" fill="white"/>
</g>
<defs>
<clipPath id="clip0_478_249">
<rect width="71" height="57" fill="white" transform="translate(25 32)"/>
</clipPath>
</defs>
</svg>
