<svg width="121" height="121" viewBox="0 0 121 121" fill="none" xmlns="http://www.w3.org/2000/svg">
<circle cx="60.5" cy="60.5" r="60.5" fill="#272635"/>
<path d="M61.6853 25.9363C58.4833 26.3083 56.1317 27.8362 54.9359 30.3075C54.2052 31.8088 53.9793 33.0178 53.9793 35.4093C53.9793 37.0037 53.9395 37.3358 53.78 37.4022C53.1157 37.6547 52.8367 39.7937 53.2486 41.4014C53.5276 42.4908 54.2716 43.939 54.9758 44.7495C55.3212 45.148 55.6932 45.7725 55.9058 46.3172C57.0883 49.466 59.4798 51.5785 62.3097 51.9904C63.2397 52.1233 63.4656 52.11 64.4488 51.8575C65.9368 51.4722 66.8668 50.9275 68.0626 49.7185C69.059 48.7087 69.9226 47.327 70.3212 46.0648C70.4142 45.7725 70.7862 45.1746 71.145 44.7362C72.3009 43.3013 73.098 41.2552 73.1113 39.714C73.1113 38.8637 72.8456 37.9071 72.5002 37.5883C72.2079 37.296 72.1813 37.1897 72.1813 35.7282C72.1813 33.4031 71.7561 31.7556 70.9191 30.8389C70.7464 30.6529 70.5205 30.1746 70.4009 29.776C69.9625 28.2215 68.9926 27.3048 67.013 26.5873C65.3257 25.9629 63.3992 25.737 61.6853 25.9363Z" fill="white"/>
<path d="M70.5205 50.2766C70.4939 50.3696 70.1219 51.8045 69.71 53.4918C68.8066 57.2119 68.2352 58.9524 67.3849 60.5999C66.6143 62.1012 65.6976 63.1907 64.741 63.7088C63.8243 64.2004 62.4159 64.2403 61.4859 63.7885C59.2804 62.7256 57.7924 59.537 56.0917 52.2429C55.8526 51.1933 55.5869 50.3164 55.4939 50.2766C55.2414 50.1836 50.671 52.0835 48.2264 53.3058C45.1307 54.8603 43.2308 57.2252 42.0217 61.0516C41.7029 62.0613 41.1847 64.32 41.2777 64.32C41.3043 64.32 41.6763 64.1738 42.1413 63.9878C45.5426 62.6061 49.369 62.4865 53.4744 63.6424C55.3477 64.1738 58.2707 65.343 60.3566 66.3793C62.3628 67.3891 64.4487 68.1065 66.4682 68.4918C71.6232 69.4883 71.7295 69.4883 74.7986 69.103C78.5586 68.6247 81.6808 67.9205 83.78 67.0835L84.8695 66.6451L84.8562 65.25C84.8163 62.9914 83.9793 60.1216 82.664 57.7301C82.0661 56.6406 81.1228 55.5113 80.9235 55.6442C80.8438 55.684 80.8172 55.6574 80.8571 55.591C80.9633 55.4316 80.2459 54.754 79.2893 54.0897C78.9439 53.8505 77.7481 53.2394 76.6454 52.7345C75.5426 52.2296 74.5196 51.7646 74.3734 51.6849C72.7658 50.9542 70.5603 50.1437 70.5205 50.2766Z" fill="white"/>
<path d="M46.2069 64.9977C45.1042 65.1438 44.4399 65.3431 42.54 66.127C37.5045 68.1598 33.8774 70.6576 28.9084 75.5336C27.1148 77.2741 26.7428 77.7125 26.7428 78.0181C26.7428 78.523 33.5851 87.8365 34.0767 88.0225C34.555 88.1952 35.5515 87.6904 37.2787 86.4016C40.0289 84.3556 41.6498 83.7178 44.4133 83.6248C46.9908 83.5318 47.9474 83.8108 51.7738 85.6975C54.9758 87.2785 57.0351 88.1421 59.8916 89.0987L61.7517 89.7231L67.664 89.6567C75.3301 89.5637 77.8013 89.3511 80.2327 88.5673C80.8571 88.3812 82.4381 87.6107 84.1388 86.6673C88.7889 84.1031 90.9413 82.6549 92.5754 81.0075C94.1964 79.36 94.6879 77.9915 94.0768 76.809C93.6516 75.9853 93.0803 75.6797 91.9776 75.6797C90.1042 75.693 87.633 76.8755 84.1122 79.4264C82.2123 80.8082 80.6711 81.3263 77.7614 81.5788C74.9315 81.8179 70.0688 82.0172 69.2318 81.9242C67.385 81.7116 65.3123 80.9145 63.997 79.918C63.346 79.4131 62.3628 78.4167 62.3495 78.2439C62.3495 78.0579 63.6649 77.9384 65.5382 77.9517C67.5843 77.9649 69.524 78.2307 70.8261 78.6824C71.8757 79.0411 72.8057 79.1208 73.842 78.9481C75.5692 78.6425 77.0971 77.6859 77.7083 76.5168C78.5187 74.9888 77.323 72.9029 75.2902 72.3051C74.0679 71.9463 72.912 71.7205 69.524 71.1757C64.8606 70.4184 63.2796 70.0066 61.0874 68.957C56.8358 66.9508 53.6604 65.755 51.2556 65.2634C49.648 64.9445 47.4691 64.825 46.2069 64.9977Z" fill="white"/>
</svg>
